<svg width="167" height="32" viewBox="0 0 167 32" fill="none" xmlns="http://www.w3.org/2000/svg">
<path d="M62.3711 23.2773C61.5898 23.9492 60.7148 24.4648 59.7461 24.8242C58.7773 25.1836 57.7734 25.3633 56.7344 25.3633C55.9375 25.3633 55.168 25.2578 54.4258 25.0468C53.6914 24.8437 53 24.5547 52.3516 24.1797C51.7109 23.7968 51.125 23.3398 50.5938 22.8086C50.0625 22.2773 49.6055 21.6914 49.2227 21.0508C48.8477 20.4023 48.5547 19.7109 48.3438 18.9765C48.1406 18.2343 48.0391 17.4648 48.0391 16.6679C48.0391 15.8711 48.1406 15.1015 48.3438 14.3593C48.5547 13.6172 48.8477 12.9258 49.2227 12.2851C49.6055 11.6367 50.0625 11.0468 50.5938 10.5156C51.125 9.98434 51.7109 9.53122 52.3516 9.15622C53 8.77341 53.6914 8.48044 54.4258 8.27731C55.168 8.06638 55.9375 7.96091 56.7344 7.96091C57.7734 7.96091 58.7773 8.14059 59.7461 8.49997C60.7148 8.85153 61.5898 9.36716 62.3711 10.0468L60.5898 12.9765C60.0977 12.4453 59.5156 12.039 58.8438 11.7578C58.1719 11.4687 57.4688 11.3242 56.7344 11.3242C55.9922 11.3242 55.2969 11.4648 54.6484 11.7461C54 12.0273 53.4336 12.4101 52.9492 12.8945C52.4648 13.3711 52.082 13.9375 51.8008 14.5937C51.5195 15.2422 51.3789 15.9336 51.3789 16.6679C51.3789 17.4023 51.5195 18.0937 51.8008 18.7422C52.082 19.3828 52.4648 19.9453 52.9492 20.4297C53.4336 20.914 54 21.2968 54.6484 21.5781C55.2969 21.8593 55.9922 22 56.7344 22C57.4688 22 58.1719 21.8593 58.8438 21.5781C59.5156 21.289 60.0977 20.8789 60.5898 20.3476L62.3711 23.2773ZM75.6953 25H74.9219L73.6797 23.2773C73.375 23.5508 73.0508 23.8086 72.707 24.0508C72.3711 24.2851 72.0156 24.4922 71.6406 24.6718C71.2656 24.8437 70.8789 24.9804 70.4805 25.082C70.0898 25.1836 69.6914 25.2343 69.2852 25.2343C68.4023 25.2343 67.5703 25.0859 66.7891 24.789C66.0156 24.4922 65.3359 24.0625 64.75 23.5C64.1719 22.9297 63.7148 22.2343 63.3789 21.414C63.043 20.5937 62.875 19.6601 62.875 18.6133C62.875 17.6367 63.043 16.7422 63.3789 15.9297C63.7148 15.1093 64.1719 14.4062 64.75 13.8203C65.3359 13.2343 66.0156 12.7812 66.7891 12.4609C67.5703 12.1328 68.4023 11.9687 69.2852 11.9687C69.6914 11.9687 70.0938 12.0195 70.4922 12.1211C70.8906 12.2226 71.2773 12.3633 71.6523 12.5429C72.0273 12.7226 72.3828 12.9336 72.7188 13.1758C73.0625 13.4179 73.3828 13.6797 73.6797 13.9609L74.9219 12.4726H75.6953V25ZM72.4727 18.6133C72.4727 18.1758 72.3867 17.7539 72.2148 17.3476C72.0508 16.9336 71.8242 16.5703 71.5352 16.2578C71.2461 15.9375 70.9062 15.6836 70.5156 15.4961C70.1328 15.3008 69.7227 15.2031 69.2852 15.2031C68.8477 15.2031 68.4336 15.2773 68.043 15.4258C67.6602 15.5742 67.3242 15.7929 67.0352 16.082C66.7539 16.3711 66.5312 16.7304 66.3672 17.1601C66.2031 17.582 66.1211 18.0664 66.1211 18.6133C66.1211 19.1601 66.2031 19.6484 66.3672 20.0781C66.5312 20.5 66.7539 20.8554 67.0352 21.1445C67.3242 21.4336 67.6602 21.6523 68.043 21.8008C68.4336 21.9492 68.8477 22.0234 69.2852 22.0234C69.7227 22.0234 70.1328 21.9297 70.5156 21.7422C70.9062 21.5468 71.2461 21.2929 71.5352 20.9804C71.8242 20.6601 72.0508 20.2968 72.2148 19.8906C72.3867 19.4765 72.4727 19.0508 72.4727 18.6133ZM94.1055 25H90.918V17.0312C90.918 16.8125 90.875 16.6054 90.7891 16.4101C90.7109 16.2148 90.5977 16.0429 90.4492 15.8945C90.3008 15.7461 90.1289 15.6328 89.9336 15.5547C89.7383 15.4687 89.5312 15.4258 89.3125 15.4258C89.0938 15.4258 88.8867 15.4687 88.6914 15.5547C88.5039 15.6328 88.3359 15.7461 88.1875 15.8945C88.0469 16.0429 87.9336 16.2148 87.8477 16.4101C87.7695 16.6054 87.7305 16.8125 87.7305 17.0312V25H84.5312V17.0312C84.5312 16.8125 84.4883 16.6054 84.4023 16.4101C84.3242 16.2148 84.2109 16.0429 84.0625 15.8945C83.9141 15.7461 83.7422 15.6328 83.5469 15.5547C83.3516 15.4687 83.1445 15.4258 82.9258 15.4258C82.707 15.4258 82.5 15.4687 82.3047 15.5547C82.1172 15.6328 81.9492 15.7461 81.8008 15.8945C81.6602 16.0429 81.5469 16.2148 81.4609 16.4101C81.3828 16.6054 81.3438 16.8125 81.3438 17.0312V25H78.1445V12.4492H78.918L79.7852 13.4101C80.2305 13.0351 80.7188 12.7461 81.25 12.5429C81.7891 12.332 82.3477 12.2265 82.9258 12.2265C83.5117 12.2265 84.082 12.3359 84.6367 12.5547C85.1992 12.7734 85.6914 13.1523 86.1133 13.6914C86.3086 13.4258 86.5312 13.1992 86.7812 13.0117C87.0312 12.8242 87.293 12.6718 87.5664 12.5547C87.8477 12.4375 88.1367 12.3554 88.4336 12.3086C88.7305 12.2539 89.0234 12.2265 89.3125 12.2265C89.9766 12.2265 90.5977 12.3515 91.1758 12.6015C91.7617 12.8515 92.2695 13.1953 92.6992 13.6328C93.1367 14.0625 93.4805 14.5703 93.7305 15.1562C93.9805 15.7422 94.1055 16.3672 94.1055 17.0312V25ZM101.441 21.9297C101.566 21.9687 101.691 21.9961 101.816 22.0117C101.941 22.0195 102.066 22.0234 102.191 22.0234C102.504 22.0234 102.805 21.9804 103.094 21.8945C103.383 21.8086 103.652 21.6875 103.902 21.5312C104.16 21.3672 104.387 21.1718 104.582 20.9453C104.785 20.7109 104.949 20.4531 105.074 20.1718L107.418 22.5273C107.121 22.9492 106.777 23.3281 106.387 23.664C106.004 24 105.586 24.2851 105.133 24.5195C104.688 24.7539 104.215 24.9297 103.715 25.0468C103.223 25.1718 102.715 25.2343 102.191 25.2343C101.309 25.2343 100.477 25.0703 99.6953 24.7422C98.9219 24.414 98.2422 23.957 97.6562 23.3711C97.0781 22.7851 96.6211 22.0898 96.2852 21.2851C95.9492 20.4726 95.7812 19.582 95.7812 18.6133C95.7812 17.6211 95.9492 16.7148 96.2852 15.8945C96.6211 15.0742 97.0781 14.375 97.6562 13.7968C98.2422 13.2187 98.9219 12.7695 99.6953 12.4492C100.477 12.1289 101.309 11.9687 102.191 11.9687C102.715 11.9687 103.227 12.0312 103.727 12.1562C104.227 12.2812 104.699 12.4609 105.145 12.6953C105.598 12.9297 106.02 13.2187 106.41 13.5625C106.801 13.8984 107.145 14.2773 107.441 14.6992L101.441 21.9297ZM103.082 15.332C102.934 15.2773 102.785 15.2422 102.637 15.2265C102.496 15.2109 102.348 15.2031 102.191 15.2031C101.754 15.2031 101.34 15.2851 100.949 15.4492C100.566 15.6054 100.23 15.832 99.9414 16.1289C99.6602 16.4258 99.4375 16.7851 99.2734 17.207C99.1094 17.6211 99.0273 18.0898 99.0273 18.6133C99.0273 18.7304 99.0312 18.8633 99.0391 19.0117C99.0547 19.1601 99.0742 19.3125 99.0977 19.4687C99.1289 19.6172 99.1641 19.7617 99.2031 19.9023C99.2422 20.0429 99.293 20.1679 99.3555 20.2773L103.082 15.332ZM112.281 25H109.059V7.457H112.281V25ZM117.953 25H114.73V7.457H117.953V25ZM130.633 18.2851V14.9218C130.633 14.4609 130.543 14.0273 130.363 13.6211C130.191 13.207 129.953 12.8476 129.648 12.5429C129.344 12.2383 128.984 12 128.57 11.8281C128.164 11.6484 127.73 11.5586 127.27 11.5586C126.809 11.5586 126.371 11.6484 125.957 11.8281C125.551 12 125.195 12.2383 124.891 12.5429C124.586 12.8476 124.344 13.207 124.164 13.6211C123.992 14.0273 123.906 14.4609 123.906 14.9218V18.2851H130.633ZM133.996 25H130.633V21.6367H123.906V25H120.555V14.9218C120.555 13.9922 120.73 13.1211 121.082 12.3086C121.434 11.4883 121.91 10.7734 122.512 10.164C123.121 9.55466 123.832 9.07419 124.645 8.72263C125.465 8.37106 126.34 8.19528 127.27 8.19528C128.199 8.19528 129.07 8.37106 129.883 8.72263C130.703 9.07419 131.418 9.55466 132.027 10.164C132.637 10.7734 133.117 11.4883 133.469 12.3086C133.82 13.1211 133.996 13.9922 133.996 14.9218V25ZM139.797 29.7812H136.574V12.4492H137.348L138.625 13.9609C138.914 13.6875 139.23 13.4297 139.574 13.1875C139.918 12.9453 140.273 12.7383 140.641 12.5664C141.016 12.3867 141.402 12.2461 141.801 12.1445C142.199 12.0429 142.602 11.9922 143.008 11.9922C143.891 11.9922 144.719 12.1523 145.492 12.4726C146.273 12.7851 146.953 13.2304 147.531 13.8086C148.117 14.3867 148.578 15.0859 148.914 15.9062C149.25 16.7187 149.418 17.6211 149.418 18.6133C149.418 19.6445 149.25 20.5742 148.914 21.4023C148.578 22.2226 148.117 22.9218 147.531 23.5C146.953 24.0703 146.273 24.5078 145.492 24.8125C144.719 25.1172 143.891 25.2695 143.008 25.2695C142.727 25.2695 142.445 25.2383 142.164 25.1758C141.891 25.1133 141.617 25.0312 141.344 24.9297C141.078 24.8203 140.812 24.6992 140.547 24.5664C140.289 24.4336 140.039 24.2968 139.797 24.1562V29.7812ZM146.207 18.6133C146.207 18.082 146.121 17.6054 145.949 17.1836C145.785 16.7617 145.559 16.4062 145.27 16.1172C144.98 15.8203 144.641 15.5937 144.25 15.4375C143.859 15.2812 143.445 15.2031 143.008 15.2031C142.57 15.2031 142.156 15.2812 141.766 15.4375C141.383 15.5937 141.047 15.8203 140.758 16.1172C140.469 16.4062 140.238 16.7617 140.066 17.1836C139.902 17.6054 139.82 18.082 139.82 18.6133C139.82 19.1211 139.902 19.5859 140.066 20.0078C140.238 20.4297 140.469 20.789 140.758 21.0859C141.047 21.3828 141.383 21.6133 141.766 21.7773C142.156 21.9414 142.57 22.0234 143.008 22.0234C143.445 22.0234 143.859 21.9414 144.25 21.7773C144.641 21.6133 144.98 21.3828 145.27 21.0859C145.559 20.789 145.785 20.4297 145.949 20.0078C146.121 19.5859 146.207 19.1211 146.207 18.6133ZM154.422 29.7812H151.199V12.4492H151.973L153.25 13.9609C153.539 13.6875 153.855 13.4297 154.199 13.1875C154.543 12.9453 154.898 12.7383 155.266 12.5664C155.641 12.3867 156.027 12.2461 156.426 12.1445C156.824 12.0429 157.227 11.9922 157.633 11.9922C158.516 11.9922 159.344 12.1523 160.117 12.4726C160.898 12.7851 161.578 13.2304 162.156 13.8086C162.742 14.3867 163.203 15.0859 163.539 15.9062C163.875 16.7187 164.043 17.6211 164.043 18.6133C164.043 19.6445 163.875 20.5742 163.539 21.4023C163.203 22.2226 162.742 22.9218 162.156 23.5C161.578 24.0703 160.898 24.5078 160.117 24.8125C159.344 25.1172 158.516 25.2695 157.633 25.2695C157.352 25.2695 157.07 25.2383 156.789 25.1758C156.516 25.1133 156.242 25.0312 155.969 24.9297C155.703 24.8203 155.438 24.6992 155.172 24.5664C154.914 24.4336 154.664 24.2968 154.422 24.1562V29.7812ZM160.832 18.6133C160.832 18.082 160.746 17.6054 160.574 17.1836C160.41 16.7617 160.184 16.4062 159.895 16.1172C159.605 15.8203 159.266 15.5937 158.875 15.4375C158.484 15.2812 158.07 15.2031 157.633 15.2031C157.195 15.2031 156.781 15.2812 156.391 15.4375C156.008 15.5937 155.672 15.8203 155.383 16.1172C155.094 16.4062 154.863 16.7617 154.691 17.1836C154.527 17.6054 154.445 18.082 154.445 18.6133C154.445 19.1211 154.527 19.5859 154.691 20.0078C154.863 20.4297 155.094 20.789 155.383 21.0859C155.672 21.3828 156.008 21.6133 156.391 21.7773C156.781 21.9414 157.195 22.0234 157.633 22.0234C158.07 22.0234 158.484 21.9414 158.875 21.7773C159.266 21.6133 159.605 21.3828 159.895 21.0859C160.184 20.789 160.41 20.4297 160.574 20.0078C160.746 19.5859 160.832 19.1211 160.832 18.6133Z" fill="#565656"/>
<path d="M9.30406 0.0274581C9.24092 0.0424581 9.05485 0.0999582 8.88871 0.157458C8.53982 0.279958 8.42352 0.287458 7.85864 0.214958C7.63934 0.189958 7.30374 0.169958 7.02795 0.167458C6.48301 0.164958 6.43317 0.177458 6.11418 0.384958C5.85833 0.552458 5.56592 0.664958 5.2569 0.714958C4.95785 0.762458 4.26339 0.794958 2.89108 0.824958C2.25975 0.839958 1.67827 0.859958 1.59852 0.872458C1.34599 0.909958 1.30944 0.942458 0.807696 1.57246C0.737917 1.65996 0.545196 1.83996 0.375734 1.97746C0.196303 2.12496 0.0567463 2.25996 0.0334868 2.31496C0.00690454 2.36996 -0.00306382 2.48496 0.00690454 2.60746C0.0235185 2.80246 0.0268413 2.81246 0.143139 2.88996C0.286018 2.97996 0.289341 3.00246 0.19298 3.09996C0.106588 3.18996 0.0733602 3.42746 0.129848 3.55746C0.209594 3.73996 0.53855 3.87746 1.01039 3.92496C1.3327 3.95996 1.67162 3.92246 2.01054 3.81246C2.15675 3.76496 2.2963 3.72496 2.31624 3.72496C2.3395 3.72496 2.4558 3.78246 2.57874 3.85246C2.8213 3.98996 3.24662 4.15746 3.80485 4.33496C4.00754 4.39996 4.24346 4.48246 4.33649 4.51996L4.50263 4.58746L4.55912 4.78746C4.6289 5.03746 4.75849 5.24996 5.16719 5.78746C5.76529 6.57246 5.73206 6.45746 5.84836 8.26246C5.90485 9.14746 6.05437 9.88246 6.39994 10.9875C7.23728 13.67 8.18096 15.1925 9.59314 16.14C10.3574 16.65 10.7794 16.7975 13.6735 17.555L14.0058 17.6425L14.0291 18.1775C14.0523 18.7425 14.1254 19.3075 14.2916 20.1475C14.4544 20.9775 14.5208 21.4875 14.5208 21.875C14.5175 22.2475 14.5009 22.3425 14.3381 22.7875L14.2484 23.0375L14.2683 23.8C14.2816 24.305 14.2783 24.6125 14.255 24.7125C14.2118 24.8825 13.6469 26.42 13.4708 26.84C13.3545 27.1175 13.2382 27.3025 12.6667 28.125C12.3278 28.615 12.2248 28.8075 12.1617 29.06C12.1052 29.2875 11.9689 29.405 11.6067 29.5325C11.3243 29.63 11.0452 29.675 10.683 29.675C10.3142 29.675 9.87558 29.7225 9.73934 29.7725C9.67289 29.8 9.59978 29.85 9.57985 29.8825C9.4702 30.0625 9.49013 30.305 9.62637 30.4275C9.69947 30.4925 9.7327 30.5025 9.84899 30.495L9.98523 30.4875L10.0052 30.62C10.0617 30.96 10.3142 31.015 11.7297 30.9925C12.6401 30.9775 12.906 30.9525 13.2017 30.855C13.3878 30.7925 13.5572 30.665 13.6569 30.51C13.74 30.3825 13.7566 30.215 13.7267 29.6725C13.72 29.535 13.7367 29.445 13.7832 29.335C13.9094 29.055 14.0523 28.66 14.3148 27.8625C14.5939 27.025 14.7102 26.705 15.1455 25.5825C15.408 24.9075 15.4113 24.9025 15.5775 24.7575C15.9297 24.4475 16.1556 23.96 16.262 23.2625C16.3218 22.89 16.3916 22.72 16.674 22.275C17.0129 21.7375 17.1724 21.38 17.4715 20.4625C17.7639 19.5775 18.0529 18.9025 18.4284 18.24C18.784 17.605 19.0465 17.325 19.2724 17.325C19.4086 17.325 19.5881 17.465 19.7442 17.6875C19.8871 17.8925 19.9569 18.0225 20.1696 18.475C20.4852 19.145 20.8673 19.8525 21.6482 21.2C22.4523 22.59 22.5321 22.7925 22.645 23.675C22.7281 24.3075 22.7946 24.4775 23.1933 25.0775L23.3329 25.285L23.3162 27.0625C23.2963 29.2875 23.2531 29.69 23.0039 30.06C22.9374 30.1575 22.871 30.255 22.861 30.275C22.8477 30.295 22.7215 30.35 22.5786 30.3925C22.233 30.5 22.0004 30.62 21.7279 30.83C21.3691 31.105 21.2495 31.3525 21.4056 31.4925C21.4887 31.57 21.708 31.625 21.9406 31.625C22.1998 31.625 22.223 31.645 22.1466 31.785C22.0303 31.99 22.1367 32.015 23.0105 31.99C24.3164 31.9525 24.8248 31.81 25.1936 31.3775C25.3166 31.2275 25.3132 31.14 25.167 30.96C24.9477 30.6925 24.8813 30.5975 24.9012 30.5825C24.9112 30.575 25.2601 30.5575 25.6754 30.5475C26.4662 30.5275 26.6623 30.505 26.9181 30.41C27.2803 30.275 27.3468 30.1 27.1939 29.6575C27.1773 29.6125 27.2105 29.5725 27.3534 29.47C27.6857 29.2275 27.8286 28.9675 28.1243 28.075C28.4333 27.1325 28.6427 26.7 29.1843 25.9C30.6895 23.6825 30.7128 23.6325 30.9686 22.21C31.1846 20.995 31.3474 20.525 32.218 18.5875C32.4639 18.0375 32.7862 17.295 32.9324 16.9375C33.258 16.145 33.371 15.9225 33.5139 15.8075C33.6169 15.725 33.6368 15.72 33.773 15.73C34.1784 15.765 34.3113 16.0125 34.1984 16.5325C34.1485 16.7725 34.1452 17.3675 34.195 17.695C34.2449 18.0425 34.3711 18.3025 34.8563 19.0375C35.481 19.99 35.6471 20.36 35.8066 21.1375C35.8863 21.525 35.883 21.7875 35.7966 21.9325C35.6836 22.12 35.6438 22.32 35.6604 22.63C35.687 23.0625 35.7867 23.375 36.1189 24.0625C36.1821 24.19 36.1954 24.295 36.2219 24.7625C36.2485 25.2725 36.3017 25.93 36.3881 26.7875C36.4047 26.98 36.428 27.565 36.4412 28.0875C36.4678 29.3825 36.4346 29.575 36.1355 29.875C35.986 30.0275 35.6139 30.3 35.3048 30.4875C34.7832 30.805 34.6735 30.9225 34.7001 31.135C34.7234 31.3175 34.823 31.375 35.1155 31.375C35.4079 31.375 35.4378 31.3925 35.4378 31.555C35.4378 31.685 35.4378 31.6875 35.564 31.7175C35.8996 31.8025 37.2653 31.83 37.5776 31.76C37.787 31.715 38.0295 31.5575 38.1159 31.4125C38.2156 31.2525 38.199 31.0075 38.0761 30.75C37.8102 30.195 37.7903 30.1025 37.6673 28.8475C37.5079 27.2275 37.4979 27.0675 37.4979 26.025C37.5012 25.06 37.5079 24.9275 37.6075 24.1125C37.8102 22.4325 37.8136 22.22 37.6441 21.575C37.5079 21.05 37.468 20.635 37.4912 19.9625C37.5045 19.525 37.5311 19.295 37.5942 19C37.8368 17.87 38.6343 15.285 38.7772 15.1675C38.817 15.135 38.9965 15.2075 39.342 15.4025C39.7574 15.635 40.4219 15.9325 41.1264 16.2025C41.7211 16.4325 41.9205 16.4825 41.9704 16.4225C42.0468 16.33 41.9704 16.0525 41.7976 15.7975C41.5716 15.4575 41.2094 15.195 40.4884 14.84C40.2325 14.7125 39.9667 14.56 39.8969 14.5025C39.8238 14.4425 39.6976 14.2875 39.6145 14.155L39.4583 13.9125L39.445 13.6C39.4417 13.4275 39.4617 12.9325 39.4916 12.5C39.6145 10.8225 39.4949 10.255 38.7273 8.88746C38.3784 8.25996 37.9099 7.56496 37.6109 7.22496C37.4048 6.98996 37.2188 6.82246 36.8499 6.53746C36.1821 6.02246 36.0923 5.90246 35.77 5.08496C35.2583 3.79496 34.9493 3.09746 34.7998 2.90246C34.6636 2.72996 34.2482 2.42996 33.8993 2.25496C33.5604 2.08496 33.0055 1.87746 32.7297 1.81496C32.3343 1.72496 31.6332 1.74246 31.3175 1.84746C31.2378 1.87496 31.1015 1.94496 31.0185 2.00246C30.6961 2.22746 30.4503 2.53496 29.6893 3.67496C29.4069 4.09496 29.1311 4.47996 29.0746 4.52996C28.9816 4.61496 28.955 4.62496 28.8155 4.62496C28.6261 4.62496 28.5363 4.58246 28.234 4.35746C27.7056 3.95996 27.5329 3.63496 27.2006 2.39746C27.0112 1.69996 26.9514 1.54746 26.7786 1.35246C26.5194 1.05996 26.1207 0.859958 25.5691 0.744958C25.3332 0.694958 25.2202 0.689958 24.5889 0.687458C24.024 0.687458 23.8147 0.697458 23.5987 0.732458C22.9208 0.842458 22.3892 1.05996 21.8542 1.44746C21.3192 1.83746 21.08 2.12746 20.8009 2.73746C20.4387 3.52746 20.2859 3.68496 19.2724 4.29996C18.5613 4.73496 17.9998 5.28746 17.1757 6.37496C16.4447 7.33996 15.9596 7.85246 15.3947 8.24996C14.7435 8.70746 14.4211 8.79746 13.4409 8.79996C12.5571 8.79996 12.2281 8.71496 12.0088 8.43246C11.7596 8.11746 11.4639 6.21996 11.4639 4.94496C11.4639 4.31496 11.4971 4.11246 11.6632 3.78746C11.9523 3.21746 11.9723 2.75496 11.7397 2.21246C11.6367 1.97496 11.5735 1.87496 11.0917 1.19996C10.58 0.487458 10.5368 0.434958 10.3541 0.282458C10.1414 0.104958 9.91877 0.0199581 9.63633 0.00995814C9.51671 0.00495813 9.36719 0.0124581 9.30406 0.0274581ZM28.3469 17.7675C28.44 17.9525 28.44 19.18 28.3469 19.8875C28.2971 20.25 28.3037 20.8075 28.3636 21.5275C28.42 22.19 28.4101 22.8475 28.3436 23.3C28.2506 23.9 28.0047 24.7825 27.6325 25.845C27.1441 27.2375 26.8085 27.89 26.2935 28.4325C25.908 28.84 25.0275 29.44 24.8414 29.42C24.7849 29.4125 24.7583 29.3675 24.6786 29.1375C24.3762 28.2475 24.2765 27.675 24.2765 26.825C24.2765 26.1125 24.3131 25.8125 24.4759 25.2525C24.7882 24.17 24.8148 23.6425 24.5988 22.9C24.5158 22.615 24.5091 22.5425 24.5091 22.075C24.5091 21.7275 24.5257 21.465 24.5656 21.2625C24.755 20.2525 24.7783 20.025 24.8082 18.895C24.8215 18.405 24.8414 17.99 24.8514 17.9775C24.8647 17.96 24.9444 17.9725 25.0707 18.0125C25.8216 18.2375 26.8218 18.1775 27.6624 17.855C27.8784 17.7725 28.1409 17.7025 28.2373 17.7C28.2905 17.7 28.3237 17.72 28.3469 17.7675Z" fill="black"/>
</svg>
